# xmcd
#
# Track frame offsets:
#	150
#	15483
#	30579
#	47770
#	65256
#	91399
#	102250
#	123942
#	136664
#	148369
#	164081
#	179668
#	195119
#	210994
#	228389
#	248517
#	266988
#	284829
#	301963
#	321622
#	339021
#
# Disc length: 4706 seconds
#
# Revision: 1
# Processed by: cddbd v1.5.2PL0 Copyright (c) Steve Scherf et al.
# Submitted via: audiograbber 1.83.01
#
DISCID=30126015
DTITLE=Nitty Gritty Dirt Band - Jambalaya - The Definitive Collection - CD1
DYEAR=2013
DGENRE=Country
TTITLE0=Jambalaya (On The Bayou)
TTITLE1=Battle Of New Orleans
TTITLE2=One Good Love
TTITLE3=Partners Brothers And Friends
TTITLE4=Ripplin' Waters
TTITLE5=Buy For Me The Rain
TTITLE6=Tennessee Stud (with Doc Watson)
TTITLE7=Some Of Shellys Blues
TTITLE8=When Its Gone
TTITLE9=An American Dream (with Linda Ronstadt)
TTITLE10=Fishin' In The Dark
TTITLE11=Shot Full Of Love
TTITLE12=Badlands
TTITLE13=Bless The Broken Road
TTITLE14=I'm Thinking Tonight Of My Blue Eyes (with Maybelle Carter)
TTITLE15=Catfish John
TTITLE16=Cosmic Cowboy
TTITLE17=(All I Hove To Do Is) Dream
TTITLE18=I Saw The Ligth (with Roy Acuff)
TTITLE19=Workin' Man (Nowhere To Go)
TTITLE20=Face On The Cutting Room Floor
EXTD=
EXTT0=
EXTT1=
EXTT2=
EXTT3=
EXTT4=
EXTT5=
EXTT6=
EXTT7=
EXTT8=
EXTT9=
EXTT10=
EXTT11=
EXTT12=
EXTT13=
EXTT14=
EXTT15=
EXTT16=
EXTT17=
EXTT18=
EXTT19=
EXTT20=
PLAYORDER=
